<svg xmlns="http://www.w3.org/2000/svg" xmlns:v="https://vecta.io/nano" width="250" height="84" fill="none">

 <g>
  <title>Layer 1</title>
  <g id="svg_10" stroke="null">
   <path d="m86.11871,22.6594c0,0 7.61594,5.61235 2.56944,12.86898s-14.30761,10.61318 -13.40184,7.28382c0.90578,-3.32935 -3.32735,-8.27583 -4.01131,-9.43092c-0.66547,-1.15508 0.49911,-11.51006 14.84368,-10.7219l0.00001,0l0.00001,0.00001l0,0.00001l0,0.00001l0,-0.00001l0,0.00001l0,0.00001l0.00001,0l0,-0.00002z" id="svg_11" stroke="null"/>
   <path fill="#141B25" d="m119.07797,18.85442c-0.92427,-0.40768 -1.73761,-0.93765 -2.38461,-1.57635c-0.48062,-0.48921 -1.16457,-1.05995 -2.05186,-1.57635c0,0 -14.12276,-11.65954 -45.76957,-6.26462c-2.93915,0.5028 -5.6565,1.1415 -8.17049,1.88889c-6.4144,-3.96805 -22.77388,-10.00166 -33.32896,-8.80582c-0.53608,0.05435 -1.01669,0.29896 -1.23851,0.66587c-0.31425,0.51638 -0.16637,1.30455 2.27369,2.11992c3.90039,1.29098 15.21339,7.36535 18.18952,12.74668c-12.31121,8.79221 -15.21339,21.41659 -16.13765,28.94502c-1.31246,10.84419 -10.12994,25.9418 -22.92176,26.74357c0,0 -1.66367,-0.04076 -1.23851,3.76422c0.31425,2.79938 -3.12401,5.13673 -4.99103,6.18309c-0.27727,0.16308 -0.09243,0.5028 0.25879,0.44844c3.90039,-0.47562 15.02853,-2.52759 22.05295,-10.76265c8.61414,-10.12397 23.75359,-27.38226 38.00576,-35.49502s35.71358,-4.00882 56.43558,-13.52126c0.05545,0.0136 6.67318,-2.98962 1.01669,-5.50364l-0.00001,0.00001l0.00001,-0.00001l0.00001,0.00001l-0.00001,0.00001l-0.00001,-0.00001l0,-0.00001l0,0.00002l-0.00001,-0.00001l-0.00001,0z" id="svg_12" stroke="null"/>
   <path fill="#0C131D" d="m97.46868,22.49633c0,0 -9.48295,-4.38932 -15.73098,0.28537s-17.13586,10.85778 -23.91996,11.45572s-20.46322,7.67791 -20.07501,12.36619s-0.27727,7.35176 -3.36433,10.19191c-3.08704,2.84014 -8.39232,14.02407 -12.81031,16.06245c-2.32914,1.07355 -4.43647,3.95446 -3.53068,5.44926c1.99641,-1.33174 3.91888,-2.94886 5.60105,-4.9193c8.61414,-10.12397 23.75359,-27.38226 38.00576,-35.49502c9.94508,-5.66669 23.40237,-5.38133 37.65453,-7.90892c-0.44365,-2.71784 -1.83004,-7.48766 -1.83004,-7.48766l-0.00001,0.00001l-0.00001,0l0,0.00001l0,0.00001l0,-0.00001l-0.00001,0l-0.00001,0l-0.00001,-0.00001l0.00001,0.00001l0.00001,-0.00002z" id="svg_13" stroke="null"/>
   <g id="svg_14" stroke="null">
    <g id="svg_15" stroke="null">
     <path fill="#E5E4F2" d="m120.85257,22.38761c-1.22003,0.28537 -2.90219,0.46203 -4.95406,0.19025c-4.67679,-0.62511 -17.00647,-4.76981 -27.7649,0.89689c-11.70119,6.15591 -19.33561,9.32221 -24.03088,9.96088c-4.69527,0.62511 -17.22829,-5.00083 -21.81265,-0.19025c-4.58435,4.81058 -9.88963,12.4613 -3.80798,12.01286c6.08166,-0.44844 13.71608,-6.11516 9.2796,0.39408c-1.20155,1.78019 -3.06856,4.40291 -5.2683,7.32458c6.11862,-5.89773 13.16153,-11.12957 19.61289,-14.79866c14.25216,-8.11275 35.82449,-3.79138 56.01042,-13.83383c0,0.02718 1.83004,-0.80176 2.73582,-1.95685l0.00001,0l0.00001,0.00001l0.00001,0l0.00001,0.00001l0,0.00001l0.00001,0l0,0.00001l-0.00001,0.00001z" id="svg_16" stroke="null"/>
     <path fill="#F3F4F4" d="m88.1336,23.48834c-11.70119,6.15591 -19.33561,9.32221 -24.03088,9.96088c-4.69527,0.62511 -17.22829,-5.00083 -21.81265,-0.19025c-4.58435,4.81058 -9.88963,12.4613 -3.80798,12.01286c6.08166,-0.44844 13.71608,-6.11516 9.2796,0.39408c-1.1276,1.67148 -2.84673,4.09036 -4.86163,6.7946c0.11091,-0.05435 0.22183,-0.1223 0.33274,-0.17665c1.73761,-1.64429 3.49372,-3.26141 5.28679,-4.81058c1.66367,-2.36453 2.53249,-4.74263 2.86522,-5.82978c0.73941,-2.283 -3.99282,0.33973 -7.74533,-1.03278c-3.75252,-1.37251 4.84314,-2.36453 5.41619,-5.40851c0.57304,-3.05757 6.54379,-1.00561 10.66601,-0.46203c4.12222,0.54357 8.96537,-1.18226 12.73637,-3.31576c3.75252,-2.1335 13.29093,-2.10633 21.53536,-4.5252c8.24444,-2.4053 7.93019,-4.57956 17.9677,-3.87293c4.63981,0.32614 7.1538,0.08153 8.5402,-0.27179c0.1294,-0.1223 0.24031,-0.25819 0.35122,-0.39408c-1.22003,0.28537 -2.90219,0.46203 -4.95406,0.19025c-4.65829,-0.58434 -16.98798,-4.72905 -27.7649,0.93765l0,0.00001l0.00001,0l-0.00001,-0.00001l0,0.00001l0.00001,0l0,0.00001l0,-0.00001l-0.00001,0.00001l0,0.00001l0.00001,0.00001l0,0.00001l0.00002,-0.00003z" id="svg_17" stroke="null"/>
     <path fill="#E5E4F2" d="m24.34088,71.56697c-5.73044,1.33174 -13.16153,1.58994 -13.79002,5.25903c-0.55456,3.23423 -2.62491,4.64751 -6.93199,7.01203c4.89859,-0.85612 13.99336,-3.37012 20.03805,-10.46369c0.6285,-0.74741 1.29397,-1.52199 1.99641,-2.33736c-0.46213,0.25819 -0.90578,0.44844 -1.31246,0.52998l0.00001,0l-0.00001,0l0.00001,0l-0.00001,0l0,0.00001l0,0.00001l0.00001,-0.00001z" id="svg_18" stroke="null"/>
    </g>
   </g>
   <path fill="#141B25" d="m80.2219,26.8177c0,0 3.86342,7.40612 -4.78769,12.51567c-8.63263,5.10954 -18.92893,5.40851 -16.26705,2.6363c2.66187,-2.7722 1.53429,-8.5612 1.57124,-9.81141c0.01848,-1.25021 6.80258,-10.36857 19.48349,-5.34056l0.00001,-0.00001l0.00001,0l-0.00001,0l0,-0.00001l0.00001,0l0.00001,0.00001l-0.00001,0l-0.00001,0.00001z" id="svg_19" stroke="null"/>
   <path fill="#FFFFFF" d="m99.96419,14.09821c0,0 -6.52531,-2.16069 -12.12635,-0.92407s-8.22595,2.36453 -6.39592,3.99523c1.83004,1.63071 10.01904,1.33174 14.23366,0.93765c4.21465,-0.39408 6.43288,-2.25582 6.4144,-2.69066c0,-0.42126 -2.12581,-1.31815 -2.12581,-1.31815l0.00001,0l0.00001,0l0,-0.00001l0,-0.00001l0,0.00001l0,0.00001z" id="svg_20" stroke="null"/>
   <path fill="#1E252F" d="m57.85471,11.91033c0.55456,-0.42126 0.42516,-1.11431 -0.25879,-1.42686c-2.58794,-1.15508 -13.73456,-6.02003 -20.94384,-6.83538c-6.85805,-0.78818 -7.87474,-0.04076 -5.80438,0.73381c2.07035,0.77459 11.29452,2.55477 13.99336,4.68828s2.99461,3.66908 6.08166,3.98164c2.2552,0.21743 5.69347,-0.23101 6.93199,-1.1415l-0.00001,-0.00001l-0.00001,-0.00001l0.00001,0l0.00001,0.00001l-0.00001,0l0,0.00001l0.00001,0.00001z" id="svg_21" stroke="null"/>
   <path fill="#0C131D" d="m28.44461,5.31956c3.90039,1.29098 15.21339,7.36535 18.18952,12.74668c2.73582,-0.99201 1.31246,-2.35093 1.01669,-3.95446c-0.29576,-1.60353 -1.97793,-3.13911 -4.65829,-4.19906c-2.68036,-1.05995 -6.13711,-2.07915 -10.20387,-4.17189c-2.77279,-1.42686 -4.5289,-1.33174 -6.0262,-1.18226c0.35122,0.24461 0.8873,0.5028 1.68215,0.761l0,-0.00001l-0.00001,0l0.00001,0l-0.00001,0l0,-0.00001l0.00001,0l0.00001,-0.00001l-0.00001,0l0,0.00002z" id="svg_22" stroke="null"/>
   <path fill="#1E252F" d="m72.60597,24.57548c0,0 5.56407,0.24461 6.04469,5.17749c0.48062,4.94647 -4.60284,10.39575 -9.37204,11.14315s-5.97076,-1.29098 -2.12581,-3.16629c3.86342,-1.86172 6.22954,-4.55238 1.34943,-6.19668s-0.99821,-6.25104 4.10373,-6.95767l0,0.00001l-0.00001,0l-0.00001,0.00001l-0.00001,0l0,-0.00001l0.00001,0l-0.00001,0l0,-0.00001l0.00001,0l0.00002,0z" id="svg_23" stroke="null"/>
   <path fill="#363E4B" d="m76.98697,29.23658c-0.29576,-1.16867 -1.64519,-2.62271 -3.32735,-2.90809c-1.31246,-0.23101 -3.30887,-0.08153 -3.771,1.01918c-0.24031,0.58434 0.18486,1.22303 0.81336,1.63071c0.61001,0.40768 1.40488,0.63869 2.16278,0.89689c0.75789,0.25819 1.49731,0.57074 1.95944,1.08714c0.61001,0.69305 0.53608,1.57635 0.81336,2.37811c0.03697,0.09513 0.07394,0.19025 0.18486,0.24461c0.24031,0.10871 0.51759,-0.08153 0.64698,-0.25819c0.61001,-0.82894 0.66547,-1.82096 0.64698,-2.7722c0,-0.46203 -0.01848,-0.89689 -0.1294,-1.31815l0,0.00001l-0.00001,0l0,-0.00001l0,-0.00001l0,-0.00001l-0.00001,0l0,-0.00001l0.00001,0.00001l0,0.00001z" id="svg_24" stroke="null"/>
   <path fill="#1E252F" d="m84.69533,8.66251c0,0 -17.13586,-0.89689 -31.24014,7.22946s-17.63497,13.54844 -15.74946,15.54605c1.92247,2.03839 6.32197,-8.42531 16.35948,-9.09118c10.03752,-0.66587 17.04344,-0.73381 20.31533,-3.68267s7.6714,-6.98485 16.32251,-6.83538c8.6696,0.16308 4.08525,-2.69066 -6.00771,-3.16629l-0.00001,-0.00001l-0.00001,-0.00001l0.00001,0l0,0.00001l0,0.00001l0,0.00001l-0.00001,-0.00001l0,0.00001l0.00001,0z" id="svg_25" stroke="null"/>
   <path fill="#363E4B" d="m52.71581,17.25089c0,0 17.04344,-8.61556 24.91817,-7.1751c0,0 3.1425,0.35332 -1.14608,2.514s-3.62311,4.22624 -9.53841,5.28621c-5.9153,1.05995 -14.23366,3.47884 -16.04523,2.6363c-1.79307,-0.85612 1.81156,-3.26141 1.81156,-3.26141l0.00001,-0.00001l-0.00001,-0.00001l-0.00001,0.00001l0.00001,0l0,0.00001l-0.00001,0z" id="svg_26" stroke="null"/>
  </g>
 </g>
 <g>
  <title>Layer 1</title>
  <g stroke="null" id="svg_27">
   <g stroke="null" id="svg_28">
    <path stroke="null" d="m155.79552,35.42086c0,0 -5.66567,2.6913 -5.64808,14.30078s2.65688,18.01231 4.59236,16.25329c1.91788,-1.75902 6.59823,-14.8109 11.66566,-20.47493c5.03224,-5.66403 -10.60994,-10.07915 -10.60994,-10.07915l0,0.00001z" id="svg_29"/>
    <path stroke="null" fill="#141B25" d="m232.61642,66.29157c-10.24044,-1.2489 -10.53956,-7.44063 -10.53956,-7.44063c-7.4252,-15.69041 -21.80053,-27.89797 -30.15828,-34.05452c1.67155,-3.69393 5.85922,-11.73263 12.56301,-17.15039c4.71553,-3.81706 1.60117,-4.78452 1.60117,-4.78452c-6.52784,-1.63589 -20.92076,8.33773 -28.18761,13.80827c-34.13481,-15.03957 -47.64796,2.93756 -50.46321,7.61653c-0.40469,0.66843 -0.86217,1.28408 -1.40762,1.84697c-1.24926,1.28408 -3.43108,3.88743 -3.20234,6.33245c0.31671,3.41249 17.68323,6.82498 26.05858,10.23746c8.37535,3.41249 35.36647,10.5365 52.11716,13.33333c16.75069,2.79684 17.0674,13.33333 17.0674,13.33333c-10.24044,11.7854 -3.41348,16.13016 -3.41348,16.13016s1.24926,-2.48021 7.14367,-3.41249c5.89441,-0.93228 7.75951,-5.27704 7.75951,-5.27704s7.14367,1.86456 12.72138,-0.61566c5.5777,-2.48021 9.92373,0 9.92373,0c-3.13196,-8.0387 -9.34308,-8.67194 -19.58353,-9.90325l0,0l0.00002,-0.00001z" id="svg_30"/>
    <path stroke="null" fill="#1E252F" d="m138.92166,15.08665c0,0 12.86214,-7.98593 33.30782,0.58048s29.41928,17.92436 29.80637,19.2788c0.3871,1.37203 -5.26098,-0.96746 -11.10261,-0.58048s-13.82988,-2.72647 -18.70376,-8.37291c-4.87389,-5.64644 -7.7947,-12.27792 -18.31667,-11.29287c-10.52197,0.96746 -15.00876,4.48549 -16.55714,3.50044c-1.54838,-0.98505 1.56598,-3.11346 1.56598,-3.11346l0.00001,0z" id="svg_31"/>
    <g stroke="null" id="svg_32">
     <path stroke="null" fill="#F3F4F4" d="m199.69569,39.37864c-8.48092,-4.37994 -17.824,2.62093 -23.96475,2.62093c-6.14074,0 -11.10261,-5.25945 -8.48092,-10.80035c2.6217,-5.55849 -7.02051,-3.21899 -16.06447,-1.16095c-9.06156,2.04045 -12.86214,0.29903 -22.50434,0.58048c-3.85336,0.12313 -5.33136,1.17854 -5.70086,2.39226c1.90029,3.23658 17.92957,6.47317 25.88263,9.70976c7.37241,3.00791 29.15535,8.88302 45.6773,12.15479c-5.5777,-4.41512 2.81524,-3.5708 9.83575,-4.0985c7.88268,-0.58048 3.80058,-7.01847 -4.68034,-11.39841l0,0l0.00001,-0.00001z" id="svg_33"/>
     <path stroke="null" fill="#E5E4F2" d="m148.86298,42.72077c5.96479,2.42744 21.32545,6.73703 35.73597,10.02638c1.1261,-4.57344 10.48677,-6.86016 9.46625,-9.8153c-1.37243,-3.88743 -22.97941,1.16095 -28.04685,-0.96746c-5.06744,-2.146 -4.0997,-5.45294 -9.34308,-5.45294c-5.26098,0 -10.71551,-0.58048 -20.85038,-4.0985c-10.13487,-3.50044 -12.82694,0.59807 -12.82694,0.59807c1.8827,3.23658 17.91198,6.47317 25.86503,9.70976l0,0z" id="svg_34"/>
     <path stroke="null" fill="#E5E4F2" d="m240.90379,74.73483c4.96186,-3.21899 9.57182,0.82674 9.21992,-0.28144c-3.06158,-9.41073 -27.62456,-5.27704 -31.72425,-11.416c-1.8651,-2.79684 -4.15248,-3.21899 -7.12608,-3.3949c4.60996,2.88479 6.01758,6.57872 6.47505,8.49604c0.0176,0.01759 0.26393,1.23131 0.28152,1.2489c1.21407,0.82674 1.1085,1.26649 0,2.25154c-6.70379,5.91029 -4.57477,12.45382 -3.74779,12.73527c0.87976,0.29903 2.04105,-3.50044 6.72139,-4.0985s8.49851,-3.44767 8.49851,-3.44767s6.42227,1.10818 11.40173,-2.09323l0,0l0.00001,-0.00001z" id="svg_35"/>
    </g>
    <path stroke="null" fill="#FFFFFF" d="m144.20024,20.41646c0,0 -2.07624,3.37731 1.8299,3.37731c3.90615,0 15.11433,0 20.58645,0.5277c5.47213,0.5277 -3.64222,-8.60158 -11.20818,-8.60158c-7.56597,0 -11.20818,4.69657 -11.20818,4.69657l0,-0.00001z" id="svg_36"/>
    <path stroke="null" fill="#141B25" d="m170.24123,38.12974c0,0 -1.8299,5.99824 6.77418,13.80827c8.60408,7.81003 15.11433,10.14951 15.11433,7.54617s-6.51025,-14.84608 -7.30204,-22.39225c-0.77419,-7.56376 -14.58647,1.03782 -14.58647,1.03782l0,-0.00001z" id="svg_37"/>
   </g>
   <path stroke="null" fill="#1E252F" d="m180.02419,16.44109c0,0 19.09086,-13.43887 22.97941,-11.67986c3.88855,1.75902 -9.55423,2.91997 -11.8768,9.74494s-6.03517,5.43535 -11.10261,1.93492l-0.00001,0z" id="svg_38"/>
   <path stroke="null" fill="#1E252F" d="m174.05939,34.84039c-0.82698,0.01759 -1.4956,0.68602 -1.51319,1.51275c-0.0176,2.00528 0.19355,5.78716 1.81231,8.90062c2.34017,4.48549 10.71551,12.66491 12.47504,11.67986s-5.06744,-5.45294 -5.64808,-12.27792c-0.52786,-6.2445 -1.90029,-9.88566 -7.12608,-9.8153l0,0l0.00001,-0.00001z" id="svg_39"/>
   <path stroke="null" fill="#29313C" d="m169.11513,18.3936c0,0 7.7947,11.87335 16.75069,13.05189c8.95599,1.16095 12.07035,0.19349 5.26098,-4.48549c-6.80936,-4.67898 -22.78586,-14.21283 -22.01167,-8.5664l0,0z" id="svg_40"/>
  </g>
 </g>
</svg>