<svg xmlns="http://www.w3.org/2000/svg" xmlns:v="https://vecta.io/nano" width="202" height="134" fill="none"> 
 <g>
  <title>Layer 1</title>
  <g stroke="null" id="svg_27">
   <g stroke="null" id="svg_28">
    <path stroke="null" d="m51.89753,53.7909c0,0 -8.77448,4.28363 -8.74723,22.76202s4.11474,28.66952 7.11224,25.86976c2.97024,-2.79976 10.21874,-23.57395 18.06671,-32.58918c7.79348,-9.01522 -16.43171,-16.04261 -16.43171,-16.04261l0,0.00001z" id="svg_29"/>
    <path stroke="null" fill="#141B25" d="m170.87077,102.92665c-15.85947,-1.98783 -16.32271,-11.84298 -16.32271,-11.84298c-11.49947,-24.97384 -33.76267,-44.40415 -46.7064,-54.2033c2.58874,-5.87949 9.07423,-18.67438 19.45645,-27.29763c7.30299,-6.07547 2.47974,-7.61534 2.47974,-7.61534c-10.10973,-2.60378 -32.40018,13.27085 -43.65441,21.9781c-52.86489,-23.93792 -73.79284,4.6756 -78.15283,12.12295c-0.62675,1.06391 -1.33525,2.04383 -2.17999,2.93975c-1.93474,2.04383 -5.31374,6.18747 -4.95949,10.07913c0.4905,5.43153 27.38619,10.86306 40.35716,16.29459c12.97098,5.43153 54.77238,16.77054 80.71432,21.22216c25.94194,4.45162 26.43244,21.22216 26.43244,21.22216c-15.85947,18.75837 -5.28649,25.67377 -5.28649,25.67377s1.93474,-3.94766 11.06347,-5.43153c9.12873,-1.48387 12.01722,-8.39927 12.01722,-8.39927s11.06347,2.96775 19.70171,-0.97992c8.63823,-3.94766 15.36897,0 15.36897,0c-4.85049,-12.79489 -14.46972,-13.80281 -30.32919,-15.76263l0,0l0.00003,-0.00002z" id="svg_30"/>
    <path stroke="null" fill="#1E252F" d="m25.76484,21.4257c0,0 19.91971,-12.7109 51.58413,0.92392s45.5619,28.52953 46.1614,30.68534c0.5995,2.18381 -8.14773,-1.53987 -17.19471,-0.92392s-21.41846,-4.33962 -28.96669,-13.32684c-7.54823,-8.98722 -12.07173,-19.54231 -28.36719,-17.97444c-16.29546,1.53987 -23.2442,7.13938 -25.64219,5.57151c-2.39799,-1.56787 2.42524,-4.95558 2.42524,-4.95558l0.00001,0z" id="svg_31"/>
    <g stroke="null" id="svg_32">
     <path stroke="null" fill="#F3F4F4" d="m119.88614,60.09035c-13.13448,-6.97139 -27.6042,4.17164 -37.11442,4.17164c-9.51023,0 -17.19471,-8.37127 -13.13448,-17.19051c4.06025,-8.84723 -10.87272,-5.12355 -24.87919,-1.84784c-14.03372,3.24771 -19.91971,0.47596 -34.85268,0.92392c-5.96774,0.19598 -8.25673,1.87584 -8.82898,3.80767c2.94299,5.15155 27.7677,10.30311 40.08466,15.45466c11.41772,4.78758 45.15316,14.13877 70.74085,19.34632c-8.63823,-7.02739 4.36,-5.68351 15.23272,-6.52343c12.20798,-0.92392 5.88599,-11.17103 -7.24849,-18.14243l0,0l0.00001,-0.00001z" id="svg_33"/>
     <path stroke="null" fill="#E5E4F2" d="m41.16105,65.4099c9.23773,3.86367 33.02693,10.72307 55.34463,15.95861c1.74399,-7.27937 16.24096,-10.91906 14.66047,-15.62264c-2.12549,-6.18747 -35.58843,1.84784 -43.43641,-1.53987c-7.84798,-3.41571 -6.34924,-8.67925 -14.46972,-8.67925c-8.14773,0 -16.59521,-0.92392 -32.29118,-6.52343c-15.69597,-5.57151 -19.8652,0.95192 -19.8652,0.95192c2.91575,5.15155 27.74045,10.30311 40.05741,15.45466l0,0z" id="svg_34"/>
     <path stroke="null" fill="#E5E4F2" d="m183.70549,116.36548c7.68448,-5.12355 14.82397,1.31589 14.27897,-0.44796c-4.74149,-14.9787 -42.7824,-8.39927 -49.13164,-18.17042c-2.88849,-4.45162 -6.43099,-5.12355 -11.03623,-5.40353c7.13949,4.59161 9.31948,10.47109 10.02798,13.52283c0.02725,0.028 0.40875,1.95983 0.436,1.98783c1.88024,1.31589 1.71674,2.01583 0,3.58369c-10.38222,9.40718 -7.08499,19.82228 -5.80424,20.27024c1.3625,0.47596 3.16099,-5.57151 10.40947,-6.52343s13.16173,-5.48752 13.16173,-5.48752s9.94623,1.76385 17.65796,-3.33171l0,0l0.00001,-0.00002z" id="svg_35"/>
    </g>
    <path stroke="null" fill="#FFFFFF" d="m33.93982,29.90897c0,0 -3.21549,5.37554 2.83399,5.37554c6.04949,0 23.4077,0 31.88243,0.83993c8.47473,0.83993 -5.64074,-13.69081 -17.35821,-13.69081c-11.71748,0 -17.35821,7.47535 -17.35821,7.47535l0,-0.00001z" id="svg_36"/>
    <path stroke="null" fill="#141B25" d="m74.26973,58.10252c0,0 -2.83399,9.54717 10.49123,21.9781c13.32521,12.43093 23.4077,16.1546 23.4077,12.01096s-10.08249,-23.62995 -11.30873,-35.64091c-1.199,-12.03896 -22.5902,1.65186 -22.5902,1.65186l0,-0.00001z" id="svg_37"/>
   </g>
   <path stroke="null" fill="#1E252F" d="m89.4207,23.58152c0,0 29.56619,-21.39015 35.58843,-18.59039c6.02224,2.79976 -14.79672,4.6476 -18.39371,15.51065s-9.34673,8.65125 -17.19471,3.07974l-0.00001,0z" id="svg_38"/>
   <path stroke="null" fill="#1E252F" d="m80.18296,52.86698c-1.28075,0.028 -2.31624,1.09191 -2.34349,2.40779c-0.02725,3.19173 0.29975,9.2112 2.80674,14.16678c3.62424,7.13938 16.59521,20.15825 19.3202,18.59039s-7.84798,-8.67925 -8.74723,-19.54231c-0.8175,-9.93914 -2.94299,-15.73463 -11.03623,-15.62264l0,0l0.00001,-0.00001z" id="svg_39"/>
   <path stroke="null" fill="#29313C" d="m72.52574,26.68925c0,0 12.07173,18.89836 25.94194,20.7742c13.87022,1.84784 18.69346,0.30797 8.14773,-7.13938c-10.54572,-7.44735 -35.28867,-22.62203 -34.08967,-13.63482l0,0z" id="svg_40"/>
  </g>
 </g>
</svg>