<svg xmlns="http://www.w3.org/2000/svg" xmlns:v="https://vecta.io/nano" width="202" height="134" fill="none">
 
 <g>
  <title>Layer 1</title>
  <g stroke="null" id="svg_10">
   <path stroke="null" id="svg_11" d="m142.65928,33.819c0,0 12.68523,8.97522 4.27971,20.57997s-23.83099,16.97252 -22.32231,11.64823c1.50869,-5.32428 -5.54209,-13.23464 -6.6813,-15.08186c-1.10842,-1.84719 0.83132,-18.40681 24.72388,-17.14638l0.00001,0l0.00001,0.00001l0,0.00001l0,0.00001l0,-0.00001l0,0.00001l0,0.00001l0.00001,0z"/>
   <path stroke="null" id="svg_12" d="m197.55676,27.7341c-1.53947,-0.65196 -2.8942,-1.49948 -3.97184,-2.52088c-0.80053,-0.78234 -1.93973,-1.69507 -3.41762,-2.52088c0,0 -23.5231,-18.64586 -76.23454,-10.01834c-4.8955,0.80407 -9.42156,1.82548 -13.6089,3.0207c-10.68392,-6.34568 -37.93254,-15.99458 -55.51326,-14.0822c-0.89291,0.08691 -1.69342,0.4781 -2.06289,1.06486c-0.52342,0.82579 -0.27711,2.08623 3.78709,3.39015c6.49655,2.06453 25.33967,11.77861 30.29676,20.3844c-20.50575,14.06044 -25.33967,34.24926 -26.87913,46.28866c-2.18605,17.34195 -16.87259,41.48593 -38.17885,42.76811c0,0 -2.77103,-0.06519 -2.06289,6.01971c0.52342,4.47675 -5.20341,8.21462 -8.31314,9.88795c-0.46183,0.26079 -0.15395,0.80407 0.43105,0.71715c6.49655,-0.7606 25.03177,-4.0421 36.73176,-17.21155c14.34786,-16.19017 39.56437,-43.78951 63.30301,-56.76337s59.48511,-6.41088 94.00002,-21.6231c0.09237,0.02174 11.11496,-4.78098 1.69342,-8.80138l-0.00001,0.00001l0.00001,-0.00001l0.00001,0.00001l-0.00002,0.00001l-0.00002,-0.00002l0,-0.00001l0,0.00003l-0.00001,-0.00002z" fill="#141B25"/>
   <path stroke="null" id="svg_13" d="m161.56396,33.55822c0,0 -15.79496,-7.01936 -26.20177,0.45636s-28.54176,17.36369 -39.84147,18.3199s-34.08386,12.27846 -33.43727,19.77591s-0.46183,11.75688 -5.60369,16.29883c-5.14182,4.54193 -13.97838,22.42719 -21.33705,25.68695c-3.87946,1.71681 -7.38945,6.32395 -5.88076,8.71442c3.32525,-2.12972 6.52735,-4.71579 9.3292,-7.86691c14.34786,-16.19017 39.56437,-43.78951 63.30301,-56.76337c16.56469,-9.06213 38.97937,-8.60579 62.71799,-12.64789c-0.73894,-4.34635 -3.04814,-11.97421 -3.04814,-11.97421l-0.00001,0.00001l-0.00001,0l0,0.00001l0,0.00001l0,-0.00002l-0.00001,0l-0.00002,0l-0.00001,-0.00002l0.00002,0.00001z" fill="#0C131D"/>
   <g stroke="null" id="svg_14">
    <g stroke="null" id="svg_15">
     <path stroke="null" id="svg_16" d="m200.51256,33.38436c-2.0321,0.45636 -4.83394,0.73887 -8.25156,0.30425c-7.78973,-0.99967 -28.32625,-7.62784 -46.24566,1.4343c-19.48969,9.84448 -32.20571,14.908 -40.02623,15.92937c-7.82052,0.99967 -28.69571,-7.99729 -36.33151,-0.30425c-7.63577,7.69305 -16.47232,19.92803 -6.34263,19.21088c10.12971,-0.71715 22.84573,-9.77931 15.45626,0.63021c-2.00132,2.84686 -5.11104,7.04109 -8.77497,11.71342c10.19128,-9.4316 21.92206,-17.79832 32.66755,-23.6659c23.73863,-12.97385 59.66986,-6.06315 93.29187,-22.12295c0,0.04347 3.04814,-1.28217 4.55683,-3.12937l0.00001,0l0.00001,0.00001l0.00001,0l0.00001,0.00001l0,0.00001l0.00001,0l0,0.00001z" fill="#E5E4F2"/>
     <path stroke="null" id="svg_17" d="m146.01531,35.14464c-19.48969,9.84448 -32.20571,14.908 -40.02623,15.92937c-7.82052,0.99967 -28.69571,-7.99729 -36.33151,-0.30425c-7.63577,7.69305 -16.47232,19.92803 -6.34263,19.21088c10.12971,-0.71715 22.84573,-9.77931 15.45626,0.63021c-1.87816,2.67302 -4.74156,6.54128 -8.09762,10.86587c0.18473,-0.08691 0.36948,-0.19559 0.55421,-0.2825c2.8942,-2.62954 5.8192,-5.21562 8.80577,-7.69305c2.77103,-3.78133 4.21816,-7.58438 4.77235,-9.32293c1.23157,-3.65095 -6.65051,0.5433 -12.90075,-1.65161c-6.25025,-2.19491 8.06681,-3.78133 9.02129,-8.64925c0.95447,-4.88964 10.89945,-1.60816 17.76548,-0.73887c6.86604,0.86928 14.93286,-1.89066 21.21391,-5.30255c6.25025,-3.41188 22.13758,-3.36842 35.86964,-7.23667c13.73207,-3.84653 13.20866,-7.3236 29.92729,-6.19356c7.72815,0.52156 11.91549,0.13039 14.2247,-0.43464c0.21553,-0.19559 0.40027,-0.4129 0.585,-0.63021c-2.0321,0.45636 -4.83394,0.73887 -8.25156,0.30425c-7.75893,-0.93447 -28.29546,-7.56266 -46.24566,1.49948l0,0.00001l0.00002,0l-0.00001,-0.00002l0,0.00001l0.00002,0l0,0.00001l0,-0.00001l-0.00001,0.00001l0,0.00001l0.00002,0.00001l0,0.00001z" fill="#F3F4F4"/>
     <path stroke="null" id="svg_18" d="m39.76112,112.03163c-9.54472,2.12972 -21.92206,2.54262 -22.96888,8.4102c-0.92368,5.17216 -4.3721,7.43226 -11.54604,11.21358c8.15918,-1.3691 23.30756,-5.38947 33.3757,-16.73346c1.04684,-1.19525 2.15526,-2.43396 3.32525,-3.73789c-0.76974,0.4129 -1.50869,0.71715 -2.18605,0.84755l0.00001,0l-0.00001,0l0.00001,0l-0.00001,0l0,0.00001l0,0.00002l0.00001,-0.00001z" fill="#E5E4F2"/>
    </g>
   </g>
   <path stroke="null" id="svg_19" d="m132.83746,40.46892c0,0 6.43497,11.84382 -7.97446,20.01497c-14.37865,8.17114 -31.52834,8.64925 -27.09467,4.21595c4.43366,-4.43328 2.55554,-13.69101 2.61709,-15.69034c0.03078,-1.99933 11.33049,-16.58134 32.45202,-8.54058l0.00001,-0.00001l0.00001,0l-0.00001,0l0,-0.00001l0.00001,0l0.00001,0.00001l-0.00001,0z" fill="#141B25"/>
   <path stroke="null" id="svg_20" d="m165.72052,20.12801c0,0 -10.86867,-3.45536 -20.19785,-1.47776s-13.70128,3.78133 -10.65314,6.38915c3.04814,2.60782 16.68787,2.12972 23.70782,1.49948c7.01999,-0.63021 10.7147,-3.60749 10.68392,-4.30289c0,-0.67367 -3.54078,-2.10797 -3.54078,-2.10797l0.00001,0l0.00001,0l0,-0.00001l0,-0.00001l0,0.00001z" fill="#FFFFFF"/>
   <path stroke="null" id="svg_21" d="m95.58229,16.62917c0.92368,-0.67367 0.70815,-1.78199 -0.43105,-2.28183c-4.31051,-1.84719 -22.87651,-9.62719 -34.88439,-10.93108c-11.42288,-1.26045 -13.11629,-0.06519 -9.66787,1.1735c3.44841,1.23871 18.81233,4.08558 23.30756,7.49746s4.98787,5.86757 10.12971,6.36741c3.7563,0.34771 9.48314,-0.36943 11.54604,-1.82548l-0.00001,-0.00001l-0.00001,-0.00001l0.00001,0l0.00001,0.00001l-0.00001,0l0,0.00001l0.00001,0.00001z" fill="#1E252F"/>
   <path stroke="null" id="svg_22" d="m46.59636,6.08926c6.49655,2.06453 25.33967,11.77861 30.29676,20.3844c4.55683,-1.58642 2.18605,-3.75959 1.69342,-6.32395c-0.49263,-2.56436 -3.29447,-5.02003 -7.75893,-6.71511c-4.46445,-1.69507 -10.22207,-3.32496 -16.99574,-6.67165c-4.6184,-2.28183 -7.54341,-2.12972 -10.03734,-1.89066c0.585,0.39118 1.4779,0.80407 2.80182,1.21699l0,-0.00001l-0.00001,0l0.00001,0l-0.00001,0l0,-0.00001l0.00001,0l0.00001,-0.00001l-0.00001,0z" fill="#0C131D"/>
   <path stroke="null" id="svg_23" d="m120.15223,36.88318c0,0 9.26761,0.39118 10.06814,8.27981c0.80053,7.91036 -7.66656,16.62481 -15.61022,17.82004s-9.94499,-2.06453 -3.54078,-5.06351c6.43497,-2.97724 10.37603,-7.28014 2.24763,-9.90968s-1.66264,-9.99662 6.83524,-11.12666l0,0.00001l-0.00001,0l-0.00001,0.00001l-0.00001,0l0,-0.00001l0.00001,0l-0.00001,0l0,-0.00001l0.00001,0z" fill="#1E252F"/>
   <path stroke="null" id="svg_24" d="m127.44931,44.33718c-0.49263,-1.86893 -2.74025,-4.19422 -5.54209,-4.65059c-2.18605,-0.36943 -5.51131,-0.13039 -6.28103,1.62987c-0.40027,0.93447 0.3079,1.95586 1.35474,2.60782c1.01604,0.65196 2.33999,1.02139 3.60236,1.4343c1.26236,0.4129 2.49395,0.91272 3.26368,1.73855c1.01604,1.10831 0.89291,2.52088 1.35474,3.80305c0.06157,0.15213 0.12316,0.30425 0.3079,0.39118c0.40027,0.17385 0.86211,-0.13039 1.07763,-0.4129c1.01604,-1.32564 1.10842,-2.91207 1.07763,-4.43328c0,-0.73887 -0.03078,-1.4343 -0.21553,-2.10797l0,0.00001l-0.00001,0l0,-0.00001l0,-0.00001l0,-0.00002l-0.00002,0l0,-0.00002l0.00001,0.00001l0,0.00001z" fill="#363E4B"/>
   <path stroke="null" id="svg_25" d="m140.28847,11.43528c0,0 -28.54176,-1.4343 -52.03408,11.5613s-29.3731,21.66656 -26.23256,24.86113c3.20209,3.25977 10.52997,-13.4737 27.24862,-14.53855c16.71865,-1.06486 28.38782,-1.1735 33.83755,-5.8893s12.7776,-11.17013 27.18704,-10.93108c14.44022,0.26079 6.80446,-4.30289 -10.00654,-5.06351l-0.00001,-0.00001l-0.00001,-0.00001l0.00001,0l0,0.00001l0,0.00001l0,0.00001l-0.00001,-0.00001l0,0.00001z" fill="#1E252F"/>
   <path stroke="null" id="svg_26" d="m87.02286,25.16975c0,0 28.38782,-13.77793 41.50411,-11.47437c0,0 5.2342,0.56502 -1.90894,4.02038s-6.03472,6.75857 -15.88733,8.45366c-9.85261,1.69507 -23.70782,5.56334 -26.72519,4.21595c-2.98657,-1.3691 3.01736,-5.21562 3.01736,-5.21562l0.00001,-0.00001l-0.00001,-0.00001l-0.00001,0.00001l0.00001,0l0,0.00001l-0.00001,0z" fill="#363E4B"/>
  </g>
 </g>
</svg>